<svg width="529" height="356" viewBox="0 0 529 356" fill="none" xmlns="http://www.w3.org/2000/svg">
<path d="M141.733 99.136H133.389V130.313H141.733V99.136Z" fill="white"/>
<path d="M158.608 114.768V130.311H150.768V98.7214C150.768 98.4462 150.906 98.2182 151.41 98.6302L170.988 114.768V99.135H178.827V130.77C178.827 131.136 178.69 131.274 178.185 130.861L158.608 114.768Z" fill="white"/>
<path d="M194.276 106.151H186.024V99.136H210.873V106.151H202.621V130.313H194.276V106.151Z" fill="white"/>
<path d="M218.086 99.136H239.956V106.151H226.431V111.286H237.709V117.933H226.431V123.297H240.598V130.313H218.086V99.136Z" fill="white"/>
<path d="M260.264 114.173C263.107 114.173 264.62 112.752 264.62 110.184C264.62 107.618 263.107 106.196 260.264 106.196H256.413V114.173H260.264ZM256.413 130.312H248.068V99.136H260.676C268.609 99.136 273.009 103.811 273.009 110.184C273.009 114.31 271.039 117.567 267.325 119.262L273.789 130.312H264.757L259.255 120.547H256.413V130.312Z" fill="white"/>
<path d="M289.014 114.768V130.311H281.173V98.7214C281.173 98.4462 281.31 98.2182 281.815 98.6302L301.392 114.768V99.135H309.232V130.77C309.232 131.136 309.095 131.274 308.591 130.861L289.014 114.768Z" fill="white"/>
<path d="M327.846 120.5H333.485L330.642 113.898L327.846 120.5ZM336.144 126.553H325.278L323.718 130.313H315.559L330.735 98.585C330.872 98.2642 331.147 98.2642 331.285 98.585L346.414 130.313H337.795L336.144 126.553Z" fill="white"/>
<path d="M354.761 106.151H346.507V99.136H371.356V106.151H363.104V130.313H354.761V106.151Z" fill="white"/>
<path d="M387.075 99.136H378.731V130.313H387.075V99.136Z" fill="white"/>
<path d="M419.533 114.723C419.533 109.817 416.553 106.012 411.327 106.012C406.1 106.012 403.12 109.817 403.12 114.723C403.12 119.629 406.1 123.48 411.327 123.48C416.553 123.48 419.533 119.629 419.533 114.723ZM394.592 114.723C394.592 105.325 402.34 98.7691 411.327 98.7691C420.313 98.7691 428.061 105.325 428.061 114.723C428.061 124.123 420.313 130.725 411.327 130.725C402.34 130.725 394.592 124.123 394.592 114.723Z" fill="white"/>
<path d="M443.239 114.768V130.311H435.398V98.7214C435.398 98.4462 435.537 98.2182 436.04 98.6302L455.617 114.768V99.135H463.457V130.77C463.457 131.136 463.32 131.274 462.816 130.861L443.239 114.768Z" fill="white"/>
<path d="M482.087 120.5H487.726L484.883 113.898L482.087 120.5ZM490.385 126.553H479.519L477.96 130.313H469.8L484.976 98.585C485.113 98.2642 485.388 98.2642 485.526 98.585L500.656 130.313H492.036L490.385 126.553Z" fill="white"/>
<path d="M506.974 99.136H515.319V123.297H528.569V130.313H506.974V99.136Z" fill="white"/>
<path d="M128.98 213.555C129.026 213.235 129.21 213.28 129.394 213.51L144.34 230.29L159.057 213.51C159.241 213.28 159.423 213.235 159.47 213.555L161.304 245.053H153.097L152.363 231.757L144.57 240.789C144.431 240.927 144.294 240.927 144.156 240.789L136.042 231.711L135.308 245.053H127.147L128.98 213.555Z" fill="white"/>
<path d="M179.32 235.245H184.959L182.117 228.642L179.32 235.245ZM187.618 241.297H176.754L175.194 245.055H167.033L182.209 213.329C182.345 213.008 182.621 213.008 182.759 213.329L197.889 245.055H189.269L187.618 241.297Z" fill="white"/>
<path d="M216.405 229.148C219.248 229.148 220.761 227.635 220.761 225.067C220.761 222.499 219.248 220.941 216.405 220.941H212.554V229.148H216.405ZM212.554 245.056H204.209V213.879H216.817C224.75 213.879 229.15 218.694 229.15 225.067C229.15 231.44 224.75 236.117 216.817 236.117H212.554V245.056Z" fill="white"/>
<path d="M248.644 229.148C251.487 229.148 253 227.635 253 225.067C253 222.499 251.487 220.941 248.644 220.941H244.793V229.148H248.644ZM244.793 245.056H236.448V213.879H249.058C256.987 213.879 261.389 218.694 261.389 225.067C261.389 231.44 256.987 236.117 249.058 236.117H244.793V245.056Z" fill="white"/>
<path d="M277.211 213.879H268.865V245.056H277.211V213.879Z" fill="white"/>
<path d="M294.083 229.512V245.054H286.243V213.465C286.243 213.191 286.381 212.962 286.886 213.374L306.463 229.512V213.878H314.302V245.513C314.302 245.88 314.165 246.018 313.66 245.604L294.083 229.512Z" fill="white"/>
<path d="M344.552 234.099H338.363V227.68H351.979V241.159C349.092 243.543 345.332 245.469 338.409 245.469C329.24 245.469 321.629 238.866 321.629 229.468C321.629 220.069 329.24 213.512 338.226 213.512C343.727 213.512 348.037 215.576 350.743 219.059L344.919 224.104C343.36 222.086 341.159 220.756 338.042 220.756C332.954 220.756 330.156 224.563 330.156 229.468C330.156 234.374 332.999 238.454 338.501 238.454C341.527 238.454 343.224 237.858 344.552 237.215V234.099Z" fill="white"/>
<path d="M142.212 174.995C145.055 174.995 146.568 173.483 146.568 170.915C146.568 168.347 145.055 166.789 142.212 166.789H138.361V174.995H142.212ZM138.361 190.906H130.018V159.728H142.626C150.557 159.728 154.959 164.543 154.959 170.915C154.959 177.288 150.557 181.965 142.626 181.965H138.361V190.906Z" fill="white"/>
<path d="M174.438 174.766C177.281 174.766 178.794 173.344 178.794 170.777C178.794 168.21 177.281 166.789 174.438 166.789H170.587V174.766H174.438ZM170.587 190.904H162.242V159.728H174.85C182.783 159.728 187.183 164.403 187.183 170.777C187.183 174.903 185.212 178.159 181.498 179.854L187.963 190.904H178.93L173.43 181.139H170.587V190.904Z" fill="white"/>
<path d="M219.245 175.316C219.245 170.409 216.266 166.604 211.039 166.604C205.812 166.604 202.832 170.409 202.832 175.316C202.832 180.222 205.812 184.073 211.039 184.073C216.266 184.073 219.245 180.222 219.245 175.316ZM194.305 175.316C194.305 165.917 202.052 159.361 211.039 159.361C220.025 159.361 227.773 165.917 227.773 175.316C227.773 184.716 220.025 191.317 211.039 191.317C202.052 191.317 194.305 184.716 194.305 175.316Z" fill="white"/>
<path d="M249.913 182.149C249.913 188.017 246.383 191.363 240.377 191.363C235.105 191.363 231.987 189.209 230.383 186.183L236.663 182.149C237.305 183.249 237.992 184.212 239.414 184.212C240.744 184.212 241.568 183.477 241.568 181.553V159.728H249.913V182.149Z" fill="white"/>
<path d="M258.536 159.728H280.406V166.743H266.88V171.879H278.159V178.526H266.88V183.889H281.048V190.906H258.536V159.728Z" fill="white"/>
<path d="M302.78 191.317C294.023 191.317 286.549 184.716 286.549 175.316C286.549 165.917 293.978 159.361 302.321 159.361C309.062 159.361 313.189 162.204 315.8 166.055L309.52 170.318C308.328 168.485 306.402 166.606 302.46 166.606C297.874 166.606 295.078 170.411 295.078 175.316C295.078 180.222 297.966 184.074 302.735 184.074C306.77 184.074 308.74 182.239 310.07 179.762L316.489 183.889C313.417 189.07 309.106 191.317 302.78 191.317Z" fill="white"/>
<path d="M329.736 166.743H321.484V159.728H346.333V166.743H338.081V190.906H329.736V166.743Z" fill="white"/>
<path d="M362.046 159.728H353.701V190.906H362.046V159.728Z" fill="white"/>
<path d="M394.521 175.316C394.521 170.409 391.541 166.604 386.314 166.604C381.087 166.604 378.107 170.409 378.107 175.316C378.107 180.222 381.087 184.073 386.314 184.073C391.541 184.073 394.521 180.222 394.521 175.316ZM369.58 175.316C369.58 165.917 377.327 159.361 386.314 159.361C395.301 159.361 403.048 165.917 403.048 175.316C403.048 184.716 395.301 191.317 386.314 191.317C377.327 191.317 369.58 184.716 369.58 175.316Z" fill="white"/>
<path d="M418.224 175.362V190.904H410.384V159.315C410.384 159.04 410.521 158.812 411.026 159.224L430.603 175.362V159.728H438.443V191.363C438.443 191.729 438.306 191.868 437.802 191.454L418.224 175.362Z" fill="white"/>
<path d="M144.263 300.215C135.506 300.215 128.034 293.614 128.034 284.213C128.034 274.815 135.461 268.259 143.804 268.259C150.545 268.259 154.671 271.102 157.285 274.953L151.003 279.216C149.811 277.383 147.886 275.504 143.942 275.504C139.357 275.504 136.561 279.309 136.561 284.213C136.561 289.119 139.448 292.972 144.218 292.972C148.253 292.972 150.224 291.137 151.553 288.662L157.972 292.788C154.899 297.969 150.591 300.215 144.263 300.215Z" fill="white"/>
<path d="M187.376 284.213C187.376 279.307 184.397 275.502 179.17 275.502C173.943 275.502 170.963 279.307 170.963 284.213C170.963 289.119 173.943 292.97 179.17 292.97C184.397 292.97 187.376 289.119 187.376 284.213ZM162.436 284.213C162.436 274.815 170.183 268.259 179.17 268.259C188.156 268.259 195.904 274.815 195.904 284.213C195.904 293.614 188.156 300.215 179.17 300.215C170.183 300.215 162.436 293.614 162.436 284.213Z" fill="white"/>
<path d="M204.236 268.303C204.281 267.982 204.465 268.028 204.648 268.257L219.596 285.037L234.312 268.257C234.496 268.028 234.679 267.982 234.724 268.303L236.559 299.801H228.351L227.618 286.504L219.825 295.536C219.687 295.675 219.548 295.675 219.412 295.536L211.296 286.459L210.563 299.801H202.402L204.236 268.303Z" fill="white"/>
<path d="M256.774 283.893C259.617 283.893 261.13 282.381 261.13 279.813C261.13 277.245 259.617 275.687 256.774 275.687H252.923V283.893H256.774ZM252.923 299.802H244.578V268.626H257.186C265.117 268.626 269.519 273.44 269.519 279.813C269.519 286.186 265.117 290.862 257.186 290.862H252.923V299.802Z" fill="white"/>
<path d="M276.818 268.626H298.688V275.641H285.161V280.777H296.441V287.423H285.161V292.789H299.329V299.803H276.818V268.626Z" fill="white"/>
<path d="M313.408 275.641H305.154V268.626H330.005V275.641H321.753V299.803H313.408V275.641Z" fill="white"/>
<path d="M345.732 268.626H337.389V299.803H345.732V268.626Z" fill="white"/>
<path d="M361.358 275.641H353.104V268.626H377.956V275.641H369.703V299.803H361.358V275.641Z" fill="white"/>
<path d="M393.69 268.626H385.345V299.803H393.69V268.626Z" fill="white"/>
<path d="M426.147 284.213C426.147 279.307 423.167 275.502 417.94 275.502C412.713 275.502 409.733 279.307 409.733 284.213C409.733 289.119 412.713 292.97 417.94 292.97C423.167 292.97 426.147 289.119 426.147 284.213ZM401.206 284.213C401.206 274.815 408.954 268.259 417.94 268.259C426.927 268.259 434.674 274.815 434.674 284.213C434.674 293.614 426.927 300.215 417.94 300.215C408.954 300.215 401.206 293.614 401.206 284.213Z" fill="white"/>
<path d="M449.852 284.258V299.8H442.012V268.211C442.012 267.936 442.15 267.708 442.654 268.12L462.232 284.258V268.625H470.071V300.259C470.071 300.626 469.934 300.764 469.429 300.351L449.852 284.258Z" fill="white"/>
<path d="M140.846 323.999H132.502V355.176H140.846V323.999Z" fill="white"/>
<path d="M157.721 339.632V355.174H149.881V323.585C149.881 323.31 150.019 323.082 150.522 323.494L170.1 339.632V323.999H177.94V355.633C177.94 356 177.803 356.138 177.298 355.725L157.721 339.632Z" fill="white"/>
<path d="M222.729 344.217H216.54V337.798H230.157V351.279C227.268 353.661 223.509 355.587 216.585 355.587C207.416 355.587 199.805 348.986 199.805 339.586C199.805 330.187 207.416 323.632 216.403 323.632C221.903 323.632 226.213 325.695 228.92 329.179L223.097 334.222C221.537 332.205 219.337 330.876 216.219 330.876C211.13 330.876 208.333 334.681 208.333 339.586C208.333 344.492 211.176 348.572 216.678 348.572C219.703 348.572 221.4 347.976 222.729 347.335V344.217Z" fill="white"/>
<path d="M249.967 339.036C252.81 339.036 254.322 337.615 254.322 335.047C254.322 332.48 252.81 331.059 249.967 331.059H246.116V339.036H249.967ZM246.116 355.174H237.771V323.999H250.379C258.31 323.999 262.712 328.675 262.712 335.047C262.712 339.173 260.741 342.429 257.027 344.125L263.491 355.174H254.459L248.957 345.409H246.116V355.174Z" fill="white"/>
<path d="M270.866 323.999H292.734V331.013H279.209V336.149H290.488V342.796H279.209V348.161H293.377V355.176H270.866V323.999Z" fill="white"/>
<path d="M300.857 323.999H322.725V331.013H309.2V336.149H320.48V342.796H309.2V348.161H323.368V355.176H300.857V323.999Z" fill="white"/>
<path d="M345.101 355.587C336.344 355.587 328.872 348.986 328.872 339.586C328.872 330.187 336.298 323.632 344.643 323.632C351.383 323.632 355.509 326.475 358.121 330.326L351.841 334.588C350.649 332.755 348.722 330.876 344.78 330.876C340.195 330.876 337.399 334.681 337.399 339.586C337.399 344.492 340.286 348.344 345.055 348.344C349.09 348.344 351.062 346.509 352.391 344.034L358.81 348.16C355.739 353.342 351.427 355.587 345.101 355.587Z" fill="white"/>
<path d="M365.451 323.999H387.32V331.013H373.796V336.149H385.073V342.796H373.796V348.161H387.962V355.176H365.451V323.999Z" fill="white"/>
<path d="M33.9179 53.9122H-6.10352e-05V0.415482H97.5554V238.186H33.9179V53.9122Z" fill="#EC008C"/>
<path d="M114.56 62.6767L129.023 51.8299C132.64 56.3208 137.132 59.9375 144.583 59.9375C150.5 59.9375 154.007 58.1842 154.007 54.0203C154.007 50.8424 151.596 49.3092 146.665 47.6644L137.9 44.7066C127.051 41.09 119.381 34.5171 119.381 22.244C119.381 7.56039 131.544 0 144.803 0C157.952 0 165.841 4.71109 170.225 9.86247L158.829 21.8053C155.761 18.6274 151.816 16.4369 145.899 16.4369C141.078 16.4369 138.667 18.6274 138.667 21.5852C138.667 24.436 140.31 25.8591 143.926 27.0652L153.788 30.3516C168.69 35.2829 173.73 42.4061 173.73 52.9243C173.73 66.6204 165.184 76.4845 145.46 76.4845C128.695 76.4845 119.162 68.8124 114.56 62.6767Z" fill="#EC008C"/>
<path d="M204.085 17.6407H184.361V0.875092H243.752V17.6407H224.028V75.3877H204.085V17.6407Z" fill="#EC008C"/>
<path d="M46.5048 53.908H12.5868V0.411316H110.142V238.181H46.5048V53.908Z" fill="white"/>
<path d="M127.147 62.6767L141.61 51.8299C145.227 56.3208 149.719 59.9375 157.171 59.9375C163.087 59.9375 166.593 58.1842 166.593 54.0203C166.593 50.8424 164.183 49.3092 159.252 47.6644L150.487 44.7066C139.638 41.09 131.968 34.5171 131.968 22.244C131.968 7.56039 144.131 0 157.39 0C170.539 0 178.429 4.71109 182.812 9.86247L171.416 21.8053C168.348 18.6274 164.403 16.4369 158.486 16.4369C153.665 16.4369 151.254 18.6274 151.254 21.5852C151.254 24.436 152.897 25.8591 156.512 27.0652L166.375 30.3516C181.277 35.2829 186.318 42.4061 186.318 52.9243C186.318 66.6204 177.771 76.4845 158.047 76.4845C141.282 76.4845 131.749 68.8124 127.147 62.6767Z" fill="white"/>
<path d="M216.674 17.6407H196.95V0.875092H256.34V17.6407H236.617V75.3877H216.674V17.6407Z" fill="white"/>
</svg>
